<svg width="20" height="20" viewBox="0 0 20 20" fill="none" xmlns="http://www.w3.org/2000/svg">
<path id="send" d="M18.6703 10.8039C18.8643 10.7066 19.0275 10.5573 19.1415 10.3726C19.2555 10.1879 19.3159 9.97515 19.3159 9.75809C19.3159 9.54104 19.2555 9.32827 19.1415 9.14357C19.0275 8.95888 18.8643 8.80956 18.6703 8.7123L2.29326 0.523794C2.0902 0.422191 1.86196 0.381881 1.63638 0.407782C1.4108 0.433683 1.19763 0.524674 1.02289 0.669657C0.848139 0.814639 0.719362 1.00735 0.652267 1.22427C0.585173 1.44119 0.582657 1.67295 0.645031 1.89128L2.31666 7.74021C2.38658 7.98467 2.53424 8.19968 2.73729 8.35271C2.94035 8.50574 3.18773 8.58845 3.44199 8.5883L8.78909 8.58831C9.09933 8.58831 9.39687 8.71155 9.61625 8.93093C9.83563 9.15031 9.95887 9.44785 9.95887 9.75809C9.95887 10.0683 9.83563 10.3659 9.61625 10.5853C9.39687 10.8046 9.09933 10.9279 8.78909 10.9279L3.44199 10.9279C3.18773 10.9277 2.94035 11.0104 2.73729 11.1635C2.53424 11.3165 2.38658 11.5315 2.31666 11.776L0.646199 17.6249C0.583701 17.8432 0.586066 18.0749 0.653003 18.2918C0.719939 18.5088 0.848556 18.7015 1.02317 18.8466C1.19778 18.9917 1.41084 19.0829 1.63637 19.109C1.86189 19.1351 2.09013 19.095 2.29326 18.9936L18.6703 10.8051L18.6703 10.8039Z" fill="#8071FC"/>
</svg>
